<svg width="25" height="29" viewBox="0 0 25 29" fill="none" xmlns="http://www.w3.org/2000/svg">
<path fill-rule="evenodd" clip-rule="evenodd" d="M13.0536 2.30375C14.0786 1.05688 15.8286 0.101875 17.3286 0C17.5836 1.70563 16.8861 3.36813 15.9661 4.54125C15.0111 5.77375 13.3761 6.73563 11.7786 6.73563H11.6586C11.3586 5.11 12.1236 3.43375 13.0536 2.30375ZM14.7121 7.23612C15.5685 6.91105 16.5098 6.55374 17.8835 6.55374L17.8772 6.55624C19.7816 6.55624 21.8016 7.59874 23.2391 9.39874C18.5297 11.9869 19.2947 18.7375 24.0566 20.545C23.4066 22.0044 23.0916 22.6519 22.2441 23.9419C21.0666 25.7356 19.4097 27.9731 17.3472 27.995H17.3097C16.4859 27.995 15.9385 27.7435 15.3489 27.4727C14.661 27.1567 13.9157 26.8144 12.6072 26.8144H12.5697C11.2418 26.8218 10.4745 27.1653 9.76933 27.4809C9.16449 27.7516 8.60547 28.0019 7.77783 28.0019H7.74033C5.67783 27.98 4.10533 25.9606 2.92783 24.16C-0.364048 19.13 -0.709048 13.2256 1.32345 10.0906C2.77095 7.86749 5.05033 6.56249 7.18783 6.56249C8.33251 6.56249 9.25429 6.89049 10.1315 7.20263C10.9277 7.48597 11.6873 7.75624 12.5435 7.75624C13.3418 7.75624 13.9974 7.5074 14.7121 7.23612Z" fill="#E94057"/>
</svg>
