<svg width="18" height="18" viewBox="0 0 18 18" fill="none" xmlns="http://www.w3.org/2000/svg">
<path fill-rule="evenodd" clip-rule="evenodd" d="M17.5059 0.494101C17.7323 0.720466 17.809 1.05649 17.7032 1.35865L12.1616 17.192C12.0487 17.5145 11.7504 17.7354 11.409 17.7493C11.0676 17.7633 10.7523 17.5674 10.6135 17.2551L7.577 10.423L0.744889 7.38653C0.432655 7.24776 0.236769 6.93245 0.250697 6.59105C0.264625 6.24965 0.485545 5.95135 0.808046 5.83847L16.6414 0.296808C16.9435 0.191053 17.2796 0.267736 17.5059 0.494101ZM9.20229 9.97624L11.2828 14.6575L14.9238 4.25476L9.20229 9.97624ZM13.7453 3.07625L3.34257 6.71719L8.02378 8.79773L13.7453 3.07625Z" fill="white"/>
</svg>
